HIERARCHY
ROOT Hips
{
	OFFSET 0.000000 0.000000 0.000000
	CHANNELS 6 Xposition Yposition Zposition Zrotation Yrotation Xrotation 
	JOINT LeftUpLeg_virtual
	{
		OFFSET 0.000000 0.000000 0.000000
		CHANNELS 3 Zrotation Yrotation Xrotation
		JOINT LeftUpLeg
		{
			OFFSET 8.479694 -4.795517 -0.379053
			CHANNELS 3 Zrotation Yrotation Xrotation
			JOINT LeftLeg
			{
				OFFSET 0.485052 -32.551468 0.112863
				CHANNELS 3 Zrotation Yrotation Xrotation
				JOINT LeftFoot
				{
					OFFSET 0.438033 -32.635670 -3.012641
					CHANNELS 3 Zrotation Yrotation Xrotation
					JOINT LeftToeBase
					{
						OFFSET 0.970169 -13.225353 11.864223
						CHANNELS 3 Zrotation Yrotation Xrotation
						End Site
						{
							OFFSET 0.000000 0.000000 0.000000
						}
					}
				}
			}
		}
	}
	JOINT RightUpLeg_virtual
	{
		OFFSET 0.000000 0.000000 0.000000
		CHANNELS 3 Zrotation Yrotation Xrotation
		JOINT RightUpLeg
		{
			OFFSET -8.479694 -4.795517 -0.379053
			CHANNELS 3 Zrotation Yrotation Xrotation
			JOINT RightLeg
			{
				OFFSET -0.484100 -32.551483 0.112903
				CHANNELS 3 Zrotation Yrotation Xrotation
				JOINT RightFoot
				{
					OFFSET -0.438985 -32.635651 -3.012681
					CHANNELS 3 Zrotation Yrotation Xrotation
					JOINT RightToeBase
					{
						OFFSET -0.970169 -13.225354 11.864223
						CHANNELS 3 Zrotation Yrotation Xrotation
						End Site
						{
							OFFSET 0.000000 0.000000 0.000000
						}
					}
				}
			}
		}
	}
	JOINT Spine_virtual
	{
		OFFSET 0.000000 0.000000 0.000000
		CHANNELS 3 Zrotation Yrotation Xrotation
		JOINT Spine
		{
			OFFSET 0.000000 7.722015 1.166203
			CHANNELS 3 Zrotation Yrotation Xrotation
			JOINT Spine1
			{
				OFFSET 0.000000 12.024086 0.248766
				CHANNELS 3 Zrotation Yrotation Xrotation
				JOINT Spine2
				{
					OFFSET -0.000000 11.503036 -0.491240
					CHANNELS 3 Zrotation Yrotation Xrotation
					JOINT Neck_virtual
					{
						OFFSET 0.000000 0.000000 0.000000
						CHANNELS 3 Zrotation Yrotation Xrotation
						JOINT Neck
						{
							OFFSET 0.000000 18.430687 -3.123054
							CHANNELS 3 Zrotation Yrotation Xrotation
							JOINT Head
							{
								OFFSET -0.000000 9.051071 1.034021
								CHANNELS 3 Zrotation Yrotation Xrotation
								End Site
								{
									OFFSET 0.000000 0.000000 0.000000
								}
							}
						}
					}
					JOINT LeftShoulder_virtual
					{
						OFFSET 0.000000 0.000000 0.000000
						CHANNELS 3 Zrotation Yrotation Xrotation
						JOINT LeftShoulder
						{
							OFFSET 6.197824 13.665230 -4.064723
							CHANNELS 3 Zrotation Yrotation Xrotation
							JOINT LeftArm
							{
								OFFSET 7.778132 -0.187073 -1.709282
								CHANNELS 3 Zrotation Yrotation Xrotation
								JOINT LeftForeArm
								{
									OFFSET 21.954697 0.000000 -2.041093
									CHANNELS 3 Zrotation Yrotation Xrotation
									JOINT LeftHand
									{
										OFFSET 22.992908 0.000000 -0.870901
										CHANNELS 3 Zrotation Yrotation Xrotation
										End Site
										{
											OFFSET 0.000000 0.000000 0.000000
										}
									}
								}
							}
						}
					}
					JOINT RightShoulder_virtual
					{
						OFFSET 0.000000 0.000000 0.000000
						CHANNELS 3 Zrotation Yrotation Xrotation
						JOINT RightShoulder
						{
							OFFSET -6.197824 13.665230 -4.064723
							CHANNELS 3 Zrotation Yrotation Xrotation
							JOINT RightArm
							{
								OFFSET -7.778132 -0.187073 -1.709282
								CHANNELS 3 Zrotation Yrotation Xrotation
								JOINT RightForeArm
								{
									OFFSET -21.954697 0.000000 -2.041093
									CHANNELS 3 Zrotation Yrotation Xrotation
									JOINT RightHand
									{
										OFFSET -22.992908 0.000000 -0.870901
										CHANNELS 3 Zrotation Yrotation Xrotation
										End Site
										{
											OFFSET 0.000000 0.000000 0.000000
										}
									}
								}
							}
						}
					}
				}
			}
		}
	}
}
MOTION
Frames: 14
Frame Time: 0.033333
79.603432 82.280754 4.317293 -179.974651 2.378028 -179.738955 -5.423815 2.597360 9.510697 6.165453 -8.560419 -24.649603 8.411551 8.496267 25.602286 -7.494320 -1.576519 -4.637891 0.000000 0.000000 0.000000 -1.127563 2.817853 9.714073 0.486176 -5.630099 -10.664712 -2.696205 0.200965 19.913913 9.396736 12.472844 -10.461991 0.000000 0.000000 0.000000 2.846346 4.244619 0.810524 -4.876609 0.200023 -2.075526 0.667784 -3.638100 4.385592 0.016778 -0.119597 0.048477 0.506595 -2.540683 5.288014 1.137439 2.498391 -15.818064 0.000000 0.000000 0.000000 1.562876 -1.532871 2.371717 9.072663 1.011215 -5.895505 -12.263572 -3.168082 -35.370295 -6.582510 -19.403044 -3.017166 0.000000 0.000000 0.000000 -2.102242 -0.303603 1.852875 4.759370 -6.031125 -8.008308 25.017835 -13.954543 -41.294589 1.170984 28.474434 -8.318839 0.000000 0.000000 0.000000 
79.606689 82.298973 4.337620 -179.995251 2.640173 -179.639303 -5.448719 2.591162 9.636340 6.235801 -8.596211 -24.828970 8.615552 8.607738 25.550332 -7.113301 -1.329145 -4.552144 0.000000 0.000000 0.000000 -1.215286 2.808727 9.956565 0.455144 -5.387221 -10.516876 -2.533854 0.435850 20.056536 9.799313 12.954612 -10.588166 0.000000 0.000000 0.000000 2.814345 4.197437 0.766918 -4.886641 0.246223 -2.099886 0.690689 -3.547695 4.316406 0.015440 -0.048977 0.063306 0.534145 -2.464728 5.261266 1.156577 2.379736 -15.738851 0.000000 0.000000 0.000000 1.596023 -1.465477 2.357046 8.999686 0.901139 -5.877244 -12.201336 -3.062841 -35.431972 -6.456649 -19.504978 -3.039846 0.000000 0.000000 0.000000 -2.068129 -0.343210 1.856231 4.794103 -6.123469 -7.967162 25.008934 -14.024258 -41.499314 1.184657 28.379571 -8.247348 0.000000 0.000000 0.000000 
79.638893 82.298691 4.369686 -179.933506 2.734463 -179.623880 -5.392789 2.643512 9.719306 6.322249 -8.519082 -24.944735 8.551600 8.672873 25.484124 -6.986138 -1.383594 -4.482953 0.000000 0.000000 0.000000 -1.180885 2.927001 10.078654 0.528264 -5.222476 -10.607583 -2.620389 0.451987 19.957336 9.723526 12.794382 -10.732828 0.000000 0.000000 0.000000 2.840483 4.264507 0.846913 -4.815659 0.198280 -2.146918 0.733776 -3.531746 4.224334 0.008201 -0.072140 0.070529 0.539147 -2.455183 5.214326 1.109191 2.488716 -15.703097 0.000000 0.000000 0.000000 1.611997 -1.468487 2.317347 9.132954 0.799794 -5.872069 -12.412044 -2.870255 -35.414251 -6.306268 -19.616819 -3.008248 0.000000 0.000000 0.000000 -2.102486 -0.223866 1.780465 4.984543 -6.242772 -7.751602 25.075149 -14.263115 -41.508644 1.121744 28.496639 -8.237439 0.000000 0.000000 0.000000 
79.719421 82.283035 4.416591 -179.919696 2.967915 -179.658550 -5.347928 2.759774 9.841771 6.436533 -8.447416 -25.061636 8.463905 8.720433 25.459412 -6.846471 -1.444452 -4.486172 0.000000 0.000000 0.000000 -1.123215 3.037996 10.224504 0.547687 -5.002105 -10.723069 -2.576087 0.482319 19.915879 9.609485 12.733569 -11.000324 0.000000 0.000000 0.000000 2.820443 4.374196 0.935929 -4.757965 0.201413 -2.126801 0.709313 -3.458078 4.199861 -0.092472 -0.065928 0.056914 0.613115 -2.256113 5.167497 1.019615 2.520422 -15.668394 0.000000 0.000000 0.000000 1.705651 -1.349182 2.322616 9.287804 0.652389 -5.880579 -12.712428 -2.751806 -35.272740 -6.109441 -19.768340 -2.911530 0.000000 0.000000 0.000000 -2.001981 -0.175805 1.781018 5.078117 -6.509342 -7.548991 25.292979 -14.441392 -41.478192 1.053505 28.851112 -8.185322 0.000000 0.000000 0.000000 
79.870522 82.250137 4.485071 -179.944571 3.373678 -179.755744 -5.345360 2.925115 9.960782 6.609800 -8.553378 -25.149856 8.370103 8.703418 25.505048 -6.679053 -1.487060 -4.577583 0.000000 0.000000 0.000000 -1.159550 3.144909 10.339411 0.652162 -4.678610 -10.851332 -2.560325 0.586156 19.976010 9.510383 12.623426 -11.401975 0.000000 0.000000 0.000000 2.761663 4.453465 1.092217 -4.705534 0.253353 -2.085614 0.738109 -3.339053 4.188581 0.022191 -0.026655 0.018314 0.529482 -2.239434 5.100689 0.936827 2.391760 -15.647207 0.000000 0.000000 0.000000 1.606932 -1.298137 2.275091 9.431405 0.394728 -5.694231 -13.225448 -2.528647 -34.804834 -5.786513 -20.001147 -2.827691 0.000000 0.000000 0.000000 -2.110577 -0.049355 1.786189 5.154550 -6.834282 -7.320922 25.621023 -14.585111 -41.220557 0.996293 29.493908 -8.101056 0.000000 0.000000 0.000000 
80.105080 82.212189 4.557445 179.976632 3.379965 -179.773229 -5.380111 2.736089 9.971480 6.904911 -8.906445 -25.204827 8.254459 8.733122 25.642086 -6.409987 -1.404378 -4.596487 0.000000 0.000000 0.000000 -1.164592 3.030557 10.389632 0.679258 -4.519513 -11.026114 -2.369357 0.559939 20.077746 9.328881 12.597769 -11.841634 0.000000 0.000000 0.000000 2.714754 4.368446 1.157061 -4.659781 0.261724 -2.050106 0.696389 -3.259305 4.218888 -0.009493 -0.051943 0.046480 0.586811 -2.103269 4.995261 0.744719 2.301500 -15.589043 0.000000 0.000000 0.000000 1.650202 -1.146715 2.217667 9.544823 0.193947 -5.624890 -14.107536 -2.338181 -34.147780 -5.375787 -20.448085 -2.731892 0.000000 0.000000 0.000000 -2.059065 0.032955 1.741515 5.415685 -7.267948 -6.976251 26.118165 -14.911235 -40.579281 0.877110 30.404075 -7.965537 0.000000 0.000000 0.000000 
80.409012 82.165771 4.608776 179.974023 3.435189 -179.863196 -5.307610 2.557683 10.163667 7.231710 -9.066080 -25.409070 8.122220 8.698252 25.859680 -6.277001 -1.397314 -4.742572 0.000000 0.000000 0.000000 -1.189266 2.884707 10.487189 0.872453 -4.227236 -11.151398 -2.295396 0.548448 20.276086 9.161346 12.449664 -12.171545 0.000000 0.000000 0.000000 2.704542 4.236119 1.340601 -4.607548 0.315762 -2.042950 0.663150 -3.146942 4.233461 -0.026773 -0.046086 0.040949 0.577201 -1.968035 4.953096 0.437909 2.221461 -15.425883 0.000000 0.000000 0.000000 1.658685 -1.044968 2.173507 9.561134 -0.054817 -5.413432 -15.490148 -1.883254 -33.170254 -4.935394 -21.151904 -2.614305 0.000000 0.000000 0.000000 -2.074027 0.154995 1.703770 5.776910 -7.709740 -6.547101 26.940039 -15.281894 -39.453058 0.674548 31.638263 -7.884997 0.000000 0.000000 0.000000 
80.794128 82.114578 4.641041 179.975389 3.285796 -179.867486 -5.235097 2.404269 10.295275 7.678902 -9.270099 -25.687827 7.907637 8.604919 26.070680 -6.201664 -1.375210 -4.817369 0.000000 0.000000 0.000000 -1.146273 2.757689 10.580593 1.126823 -4.068053 -11.289776 -2.221978 0.396668 20.422505 8.989857 12.351773 -12.446370 0.000000 0.000000 0.000000 2.702682 4.056371 1.495189 -4.555711 0.376014 -2.090640 0.647311 -3.034591 4.265215 -0.022233 -0.044096 0.032296 0.551388 -1.747112 4.898944 0.018802 2.197877 -15.208649 0.000000 0.000000 0.000000 1.661561 -0.906736 2.155953 9.470841 -0.312501 -5.145833 -17.449340 -1.240135 -31.914691 -4.421064 -22.359867 -2.523847 0.000000 0.000000 0.000000 -2.101157 0.294533 1.689081 6.325154 -8.158103 -6.051812 28.116057 -15.682394 -37.904681 0.428747 33.292241 -7.775873 0.000000 0.000000 0.000000 
81.244568 82.071640 4.655034 -179.922414 2.982653 -179.820371 -5.061962 2.277663 10.495130 8.226394 -9.376170 -26.096205 7.655970 8.643880 26.323949 -6.341934 -1.463650 -4.786557 0.000000 0.000000 0.000000 -1.082084 2.711300 10.749744 1.586552 -3.814394 -11.394283 -2.266539 0.146698 20.434592 8.758148 12.119094 -12.560488 0.000000 0.000000 0.000000 2.741590 3.871599 1.746448 -4.467881 0.473726 -2.187844 0.672303 -2.900820 4.308675 0.010715 -0.014062 0.011345 0.465187 -1.765166 4.918575 -0.518216 2.062202 -14.876611 0.000000 0.000000 0.000000 1.589720 -0.818252 2.245936 9.270774 -0.614553 -4.838068 -19.991521 -0.455149 -30.300830 -3.915801 -24.141025 -2.313629 0.000000 0.000000 0.000000 -2.229925 0.408844 1.690979 7.108080 -8.571944 -5.527016 29.735348 -16.185195 -35.922157 0.051210 35.315479 -7.800510 0.000000 0.000000 0.000000 
81.733223 82.054436 4.675811 -179.907483 2.425995 -179.788501 -4.983595 2.062234 10.745685 8.894928 -9.401573 -26.631063 7.206138 8.484160 26.538565 -6.463397 -1.419002 -4.594965 0.000000 0.000000 0.000000 -0.911811 2.565595 10.978494 1.921787 -3.874728 -11.466720 -2.371217 -0.238499 20.205732 8.566325 12.116429 -12.619368 0.000000 0.000000 0.000000 2.687344 3.611412 2.031676 -4.409714 0.501650 -2.302921 0.672340 -2.828417 4.420610 0.007267 -0.055115 0.013470 0.396811 -1.582503 4.880919 -1.198256 1.978646 -14.488597 0.000000 0.000000 0.000000 1.601367 -0.631979 2.194322 8.854165 -0.801499 -4.425656 -23.096951 0.562716 -27.819649 -3.343417 -26.423155 -2.049099 0.000000 0.000000 0.000000 -2.253961 0.587046 1.722698 8.136908 -8.939866 -5.041817 31.638030 -16.612560 -33.937332 -0.131763 37.543665 -7.531548 0.000000 0.000000 0.000000 
82.224388 82.054359 4.751238 -179.989719 1.678047 -179.804867 -5.058262 1.824384 11.025089 9.593277 -9.306734 -27.288745 6.574841 8.109012 26.810888 -6.517753 -1.234251 -4.292801 0.000000 0.000000 0.000000 -0.693075 2.344466 11.237277 2.122636 -4.093064 -11.489063 -2.472910 -0.701759 19.865907 8.177947 12.187074 -12.791606 0.000000 0.000000 0.000000 2.625072 3.321506 2.437505 -4.366022 0.544289 -2.390753 0.581576 -2.761720 4.548734 0.079985 -0.118696 0.037895 0.357406 -1.483883 4.909703 -1.960523 1.769314 -13.898612 0.000000 0.000000 0.000000 1.633070 -0.503613 2.144184 8.326888 -1.109908 -3.999206 -26.681475 1.566474 -24.783912 -2.733253 -29.075323 -1.817194 0.000000 0.000000 0.000000 -2.273336 0.777040 1.734815 9.322659 -9.218120 -4.453111 33.819689 -16.967701 -31.707278 -0.583285 39.941396 -7.496044 0.000000 0.000000 0.000000 
82.677979 82.065895 4.886243 -179.829114 1.126674 -179.797558 -4.907213 1.418619 11.367821 10.238475 -8.633801 -28.042049 6.004279 7.847420 27.172460 -6.860913 -1.316919 -3.905828 0.000000 0.000000 0.000000 -0.363191 2.147819 11.433380 2.568425 -3.965959 -11.555564 -2.852131 -1.092291 19.489832 7.629061 12.166642 -13.021880 0.000000 0.000000 0.000000 2.700614 3.063197 2.862358 -4.128847 0.697395 -2.522721 0.575473 -2.571344 4.726362 -0.015434 -0.053165 0.037830 0.357607 -1.319943 5.024908 -2.784266 1.702090 -13.215185 0.000000 0.000000 0.000000 1.689506 -0.399435 2.233837 7.687318 -1.612354 -3.525739 -30.409501 2.490694 -21.000224 -2.206284 -31.723148 -1.527825 0.000000 0.000000 0.000000 -2.278479 0.873888 1.761916 10.749873 -9.447904 -3.819091 36.005083 -17.226972 -29.278091 -1.016729 42.199979 -7.465478 0.000000 0.000000 0.000000 
83.066566 82.079826 5.075219 -179.795905 0.343047 -179.911322 -4.667383 1.218811 11.576653 11.032885 -8.947369 -28.889060 5.310468 7.423512 27.776544 -7.459717 -1.699867 -3.162416 0.000000 0.000000 0.000000 0.213668 1.697888 11.610686 2.258579 -3.073250 -11.614969 -2.863787 -2.050364 19.304208 6.522930 12.299641 -13.751286 0.000000 0.000000 0.000000 2.773375 2.668007 3.358254 -3.832560 0.797227 -2.610822 0.541980 -2.462137 4.917025 -0.031739 -0.083236 0.049271 0.271827 -1.135252 5.170148 -3.680844 1.573988 -12.413609 0.000000 0.000000 0.000000 1.671796 -0.190917 2.294169 6.946528 -2.128933 -3.078701 -34.249424 3.170231 -16.751560 -1.801797 -34.027750 -1.042178 0.000000 0.000000 0.000000 -2.324608 1.076819 1.842612 12.195977 -9.451743 -3.170736 38.051216 -17.251770 -26.750313 -1.353626 44.225536 -7.301404 0.000000 0.000000 0.000000 
83.395798 82.067848 5.245937 -179.797408 -0.114983 -179.951333 -4.385654 0.943981 11.842015 11.719286 -9.135655 -30.002367 4.480045 6.398492 28.743601 -8.236574 -2.378164 -2.547886 0.000000 0.000000 0.000000 0.545659 1.109315 11.764880 2.146369 -2.007732 -11.722945 -2.846434 -2.311823 19.400118 5.310893 12.233107 -14.468977 0.000000 0.000000 0.000000 2.873338 2.382315 3.802156 -3.471481 1.017824 -2.785224 0.490424 -2.240146 5.086999 -0.010882 -0.006538 -0.009301 0.180557 -0.986609 5.371226 -4.571563 1.500786 -11.628441 0.000000 0.000000 0.000000 1.623603 -0.088886 2.420271 6.071044 -2.869639 -2.699129 -37.939686 3.578233 -11.914102 -1.399878 -35.636474 -0.615532 0.000000 0.000000 0.000000 -2.427419 1.216790 1.964571 13.773637 -9.242116 -2.569387 39.631708 -17.183516 -23.715469 -1.776144 45.845309 -7.284601 0.000000 0.000000 0.000000 
